<svg width="24" height="24" viewBox="0 0 24 24" fill="none" xmlns="http://www.w3.org/2000/svg">
<path d="M8.12369 23.9997C5.45582 15.2086 11.093 11.9988 11.093 11.9988C10.6986 16.6898 13.3643 20.3444 13.3643 20.3444C14.3448 20.0486 16.2161 18.666 16.2161 18.666C16.2161 20.3444 15.2287 23.9976 15.2287 23.9976C15.2287 23.9976 18.6854 21.3248 19.7735 16.8856C20.8603 12.4464 17.7036 7.98964 17.7036 7.98964C17.8938 11.1316 16.8308 14.2219 14.7483 16.5828C14.8525 16.4625 14.9399 16.3289 15.007 16.1842C15.3812 15.4359 15.9819 13.4911 15.6301 8.98756C15.135 2.66578 9.40693 0 9.40693 0C9.90065 3.85181 8.4202 4.73924 4.95231 12.0505C1.48443 19.3605 8.12369 23.9997 8.12369 23.9997Z" fill="#6200EE"/>
</svg>
