<svg width="25" height="25" viewBox="0 0 25 25" fill="none" xmlns="http://www.w3.org/2000/svg">
<path d="M1.5625 13.2662V22.6412C1.5625 23.5037 2.26406 24.2037 3.125 24.2037H10.9375V13.2662H1.5625Z" fill="#6200EE"/>
<path d="M23.4375 7.01619H18.4938C18.8484 6.774 19.1531 6.53337 19.3656 6.31775C20.6266 5.05056 20.6266 2.98806 19.3656 1.72087C18.1406 0.486499 16.0063 0.489624 14.7828 1.72087C14.1047 2.40056 12.3078 5.16775 12.5563 7.01619H12.4438C12.6906 5.16775 10.8938 2.40056 10.2172 1.72087C8.99219 0.489624 6.85781 0.489624 5.63438 1.72087C4.375 2.98806 4.375 5.05056 5.63281 6.31775C5.84688 6.53337 6.15156 6.774 6.50625 7.01619H1.5625C0.701563 7.01619 0 7.71775 0 8.57869V10.9224C0 11.3537 0.35 11.7037 0.78125 11.7037H10.9375V8.57869H14.0625V11.7037H24.2188C24.65 11.7037 25 11.3537 25 10.9224V8.57869C25 7.71775 24.3 7.01619 23.4375 7.01619ZM10.8453 6.96462C10.8453 6.96462 10.7797 7.01619 10.5562 7.01619C9.47656 7.01619 7.41563 5.89431 6.74219 5.21619C6.0875 4.55681 6.0875 3.48181 6.74219 2.82244C7.05938 2.50369 7.47969 2.32869 7.92656 2.32869C8.37187 2.32869 8.79219 2.50369 9.10938 2.82244C10.1625 3.88181 11.2094 6.58806 10.8453 6.96462ZM14.4422 7.01619C14.2203 7.01619 14.1547 6.96619 14.1547 6.96462C13.7906 6.58806 14.8375 3.88181 15.8906 2.82244C16.5203 2.1865 17.6219 2.18337 18.2578 2.82244C18.9141 3.48181 18.9141 4.55681 18.2578 5.21619C17.5844 5.89431 15.5234 7.01619 14.4422 7.01619Z" fill="#6200EE"/>
<path d="M14.0625 13.2662V24.2037H21.875C22.7375 24.2037 23.4375 23.5037 23.4375 22.6412V13.2662H14.0625Z" fill="#6200EE"/>
</svg>
