<svg width="45" height="45" viewBox="0 0 45 45" fill="none" xmlns="http://www.w3.org/2000/svg">
<path d="M44.6055 42.7051L33.6698 31.7694C36.6033 28.3969 38.3794 23.9967 38.3794 19.1874C38.3794 8.60089 29.7685 0 19.192 0C8.60553 0 0.00463867 8.61087 0.00463867 19.1874C0.00463867 29.7639 8.6155 38.3747 19.192 38.3747C24.0013 38.3747 28.4015 36.5987 31.774 33.6652L42.7097 44.6009C42.9692 44.8603 43.3184 45 43.6576 45C43.9969 45 44.3461 44.8703 44.6055 44.6009C45.1244 44.082 45.1244 43.2239 44.6055 42.7051ZM2.68867 19.1874C2.68867 10.0876 10.0922 2.69401 19.182 2.69401C28.2818 2.69401 35.6754 10.0976 35.6754 19.1874C35.6754 28.2772 28.2818 35.6907 19.182 35.6907C10.0922 35.6907 2.68867 28.2871 2.68867 19.1874Z" fill="#6200EE"/>
</svg>
