<svg width="27" height="27" viewBox="0 0 27 27" fill="none" xmlns="http://www.w3.org/2000/svg">
<g clip-path="url(#clip0)">
<path d="M21.9059 8.19213L20.5233 6.99684C20.3636 6.85913 20.303 6.6388 20.3746 6.44051L20.975 4.71643C21.0797 4.41898 20.8924 4.10501 20.5894 4.04442L18.7882 3.6974C18.5844 3.65885 18.4192 3.49911 18.3806 3.28979L18.0391 1.49411C17.9785 1.18565 17.6646 1.00388 17.3671 1.10853L15.643 1.70893C15.4447 1.77503 15.2244 1.71995 15.0867 1.56021L13.8859 0.177641C13.6821 -0.0592135 13.313 -0.0592135 13.1092 0.177641L11.914 1.56021C11.7762 1.71995 11.5559 1.78054 11.3576 1.70893L9.63354 1.10853C9.3361 1.00388 9.02213 1.19116 8.96154 1.49411L8.61452 3.28979C8.57596 3.4936 8.41622 3.65885 8.20691 3.6974L6.41122 4.04442C6.10276 4.10501 5.92099 4.41898 6.02565 4.71643L6.62604 6.44051C6.69214 6.6388 6.63706 6.85913 6.47732 6.99684L5.09475 8.19213C4.8579 8.39593 4.8579 8.76498 5.09475 8.96879L6.47732 10.1641C6.63706 10.3018 6.69765 10.5221 6.62604 10.7204L6.02565 12.4445C5.92099 12.7419 6.10827 13.0559 6.41122 13.1165L8.20691 13.4635C8.41071 13.5021 8.57596 13.6618 8.61452 13.8711L8.96154 15.6668C9.02213 15.9753 9.3361 16.157 9.63354 16.0524L11.3576 15.452C11.5559 15.3859 11.7762 15.441 11.914 15.6007L13.1092 16.9833C13.313 17.2201 13.6821 17.2201 13.8859 16.9833L15.0812 15.6007C15.2189 15.441 15.4392 15.3804 15.6375 15.452L17.3616 16.0524C17.659 16.157 17.973 15.9698 18.0336 15.6668L18.3806 13.8711C18.4192 13.6673 18.5789 13.5021 18.7882 13.4635L20.5839 13.1165C20.8924 13.0559 21.0742 12.7419 20.9695 12.4445L20.3691 10.7204C20.303 10.5221 20.3581 10.3018 20.5178 10.1641L21.9004 8.96879C22.1427 8.76498 22.1427 8.39593 21.9059 8.19213ZM17.2349 8.16458L15.5439 9.59122L16.0727 11.7394C16.1718 12.1415 15.7312 12.461 15.3786 12.2462L13.5003 11.0729L11.622 12.2407C11.2695 12.461 10.8288 12.1415 10.928 11.7339L11.4568 9.58571L9.76574 8.15908C9.44626 7.88917 9.61702 7.3714 10.0301 7.34386L12.2334 7.18412L13.0652 5.13505C13.2194 4.74948 13.7647 4.74948 13.9245 5.13505L14.7562 7.18412L16.9595 7.34386C17.3836 7.37691 17.5489 7.89468 17.2349 8.16458Z" fill="#6200EE"/>
<path d="M15.8304 17.2808L15.1474 18.0739C14.7343 18.5532 14.1339 18.8286 13.5004 18.8286C12.867 18.8286 12.2666 18.5532 11.8535 18.0739L11.1704 17.2808L10.179 17.6223C9.99167 17.6884 9.79888 17.7269 9.60059 17.7379V24.1716C9.60059 24.6012 9.82642 25.0033 10.1955 25.2236L12.8615 26.8265C13.2525 27.0579 13.7373 27.0579 14.1284 26.8265L16.7943 25.2236C17.1634 25.0033 17.3892 24.6012 17.3892 24.1716V17.7379C17.1909 17.7269 16.9981 17.6884 16.8109 17.6223L15.8304 17.2808Z" fill="#6200EE"/>
</g>
<defs>
<clipPath id="clip0">
<rect width="27" height="27" fill="white"/>
</clipPath>
</defs>
</svg>
