<svg xmlns="http://www.w3.org/2000/svg" xmlns:xlink="http://www.w3.org/1999/xlink">
    <symbol id='icon-fire' width="24" height="24" viewBox="0 0 24 24">
        <path d="M8.12369 23.9997C5.45582 15.2086 11.093 11.9988 11.093 11.9988C10.6986 16.6898 13.3643 20.3444 13.3643 20.3444C14.3448 20.0486 16.2161 18.666 16.2161 18.666C16.2161 20.3444 15.2287 23.9976 15.2287 23.9976C15.2287 23.9976 18.6854 21.3248 19.7735 16.8856C20.8603 12.4464 17.7036 7.98964 17.7036 7.98964C17.8938 11.1316 16.8308 14.2219 14.7483 16.5828C14.8525 16.4625 14.9399 16.3289 15.007 16.1842C15.3812 15.4359 15.9819 13.4911 15.6301 8.98756C15.135 2.66578 9.40693 0 9.40693 0C9.90065 3.85181 8.4202 4.73924 4.95231 12.0505C1.48443 19.3605 8.12369 23.9997 8.12369 23.9997Z"/>
    </symbol>

    <symbol id='icon-oculos' width="87" height="87" viewBox="0 0 87 87" fill="none">
        <path d="M9.32158 69.5271H36.2755L40.4581 60.1251C42.1381 56.3531 44.9682 56.3014 46.7773 60.0145L51.4209 69.5271H77.6799C82.8274 69.5271 87 65.353 87 60.2069V44.9825L61.4776 18.6834C60.0432 17.2059 57.3467 16.9029 56.5153 18.7853C55.8505 20.2872 55.3078 22.5717 55.3078 26.0307C55.3078 28.8492 55.7156 30.5823 56.2727 31.6348C57.239 33.454 58.9922 31.3189 59.4402 29.3102C59.7503 27.9088 60.5185 26.7888 62.2946 27.4292C66.1801 28.8277 73.1698 44.984 73.1698 44.984H13.8273C13.8273 44.984 20.8185 28.8291 24.7025 27.4292C26.4815 26.7902 27.2483 27.9088 27.5584 29.3102C28.0064 31.3189 29.761 33.4526 30.7259 31.6348C31.283 30.5823 31.6922 28.8521 31.6922 26.0307C31.6922 22.5731 31.148 20.2887 30.4818 18.7853C29.6504 16.9029 26.9553 17.2059 25.5224 18.6834L0 44.9825V60.2069C0 65.353 4.1726 69.5271 9.32158 69.5271ZM52.8984 49.3303H83.3472V57.2534C83.3472 61.6299 79.176 65.1793 74.027 65.1793H52.8984V49.3303ZM4.03907 49.6419H34.4878V65.4894H13.3621C8.21454 65.4894 4.04194 61.94 4.04194 57.5664V49.6405H4.03907V49.6419Z" fill="#6200EE"/>
    </symbol>
</svg>
